<?xml version="1.0" encoding="UTF-8" standalone="no"?>
<svg
   xmlns:dc="http://purl.org/dc/elements/1.1/"
   xmlns:cc="http://creativecommons.org/ns#"
   xmlns:rdf="http://www.w3.org/1999/02/22-rdf-syntax-ns#"
   xmlns:svg="http://www.w3.org/2000/svg"
   xmlns="http://www.w3.org/2000/svg"
   id="svg8"
   version="1.1"
   viewBox="0 0 46.302082 46.566666"
   height="46.566666mm"
   width="46.302082mm">
  <defs
     id="defs2">
    <clipPath
       id="clip0">
      <rect
         x="410"
         y="228"
         width="177"
         height="209"
         id="rect10" />
    </clipPath>
    <clipPath
       id="clip1">
      <rect
         x="451"
         y="245"
         width="96"
         height="96"
         id="rect13" />
    </clipPath>
    <clipPath
       id="clip2">
      <rect
         x="451"
         y="245"
         width="96"
         height="96"
         id="rect16" />
    </clipPath>
    <clipPath
       id="clip3">
      <rect
         x="451"
         y="245"
         width="96"
         height="96"
         id="rect19" />
    </clipPath>
  </defs>
  <metadata
     id="metadata5">
    <rdf:RDF>
      <cc:Work
         rdf:about="">
        <dc:format>image/svg+xml</dc:format>
        <dc:type
           rdf:resource="http://purl.org/dc/dcmitype/StillImage" />
        <dc:title></dc:title>
      </cc:Work>
    </rdf:RDF>
  </metadata>
  <g
     transform="translate(-77.390625,-59.026191)"
     id="layer1">
    <g
       transform="matrix(0.26458333,0,0,0.26458333,77.126042,59.026191)"
       id="g59"
       style="overflow:hidden">
      <g
         clip-path="url(#clip0)"
         transform="translate(-410,-228)"
         id="g36">
        <path
           style="fill:none;fill-rule:evenodd;stroke:#2d848a;stroke-width:6;stroke-miterlimit:8"
           d="m 414,316 c 0,-46.944 37.832,-85 84.5,-85 46.668,0 84.5,38.056 84.5,85 0,46.944 -37.832,85 -84.5,85 -46.668,0 -84.5,-38.056 -84.5,-85 z"
           stroke-miterlimit="8"
           id="path24" />
        <g
           clip-path="url(#clip1)"
           id="g32">
          <g
             clip-path="url(#clip2)"
             id="g30">
            <g
               clip-path="url(#clip3)"
               id="g28">
              <path
                 style="fill:#3587a4"
                 d="m 499,289 c -5,0 -9,-4 -9,-9 0,-5 4,-9 9,-9 5,0 9,4 9,9 0,5 -4,9 -9,9 z m 0,-30 c -6.9,0 -13.4,3.4 -17.3,9.2 -3.9,5.7 -4.7,13 -2.2,19.5 l 9.5,21 8.2,17.2 c 0.3,0.7 1,1.1 1.8,1.1 0.8,0 1.5,-0.4 1.8,-1.1 l 8.2,-17.2 9.5,-21 c 2.5,-6.5 1.7,-13.8 -2.2,-19.5 -3.9,-5.8 -10.4,-9.2 -17.3,-9.2 z"
                 id="path26" />
            </g>
          </g>
        </g>
        <text
           style="font-weight:400;font-size:80px;font-family:Calibri, Calibri_MSFontService, sans-serif;fill:#ff7f11"
           font-weight="400"
           font-size="80"
           transform="translate(472.798,367)"
           id="text34">U</text>
      </g>
    </g>
  </g>
</svg>
